<svg width="51" height="16" viewBox="0 0 51 16" fill="none" xmlns="http://www.w3.org/2000/svg">
<path d="M50.2206 4.63511C49.7655 3.33385 48.5252 2.39942 47.0684 2.39942H47.0379C46.0908 2.39942 45.2373 2.79358 44.6298 3.42634C44.0212 2.79358 43.1677 2.39942 42.2217 2.39942H42.1913C41.3588 2.39942 40.5978 2.70424 40.0134 3.20877V2.9523C39.9934 2.69688 39.7832 2.49612 39.5236 2.49612H37.2889C37.0157 2.49612 36.7949 2.71685 36.7949 2.99119V15.1261C36.7949 15.4005 37.0157 15.6212 37.2889 15.6212H39.5236C39.7727 15.6212 39.9776 15.4351 40.0102 15.1944L40.0092 6.48294C40.0092 6.45246 40.0102 6.42408 40.0134 6.3957C40.0491 6.00679 40.334 5.68726 40.7838 5.64732H40.8669H41.1013H41.1959C41.384 5.66413 41.5427 5.73035 41.6678 5.83021C41.8623 5.98472 41.9705 6.22227 41.9705 6.48294L41.9789 15.1513C41.9789 15.4257 42.2007 15.6475 42.473 15.6475H44.7076C44.9714 15.6475 45.1858 15.4372 45.1985 15.1755L45.1974 6.47137C45.1963 6.18548 45.3288 5.92691 45.5611 5.77345C45.6756 5.69987 45.8133 5.65047 45.9721 5.63575H46.0551H46.2895H46.3841C46.8676 5.6778 47.1598 6.04463 47.1587 6.47137L47.1672 15.1282C47.1672 15.4026 47.3889 15.6233 47.6612 15.6233H49.8958C50.168 15.6233 50.3898 15.4026 50.3898 15.1282V5.81759C50.3898 5.18273 50.3183 4.9126 50.2206 4.63511Z" fill="#54C1F0"/>
<path d="M35.0889 2.52777H33.8108V0.457106C33.8108 0.455004 33.8108 0.452902 33.8108 0.450799C33.8108 0.201689 33.609 -0.000121117 33.3598 -0.000121117C33.3304 -0.000121117 33.302 0.00408268 33.2747 0.00933838C31.8578 0.398245 32.1416 2.36064 29.5549 2.52777H29.4971H29.3037C29.2658 2.52777 29.2301 2.53302 29.1954 2.54038H29.1933L29.1954 2.54143C28.9747 2.59083 28.8086 2.78634 28.8086 3.02178V5.25642C28.8086 5.52865 29.0304 5.75043 29.3037 5.75043H30.6522L30.6501 15.2261C30.6501 15.4962 30.8687 15.7148 31.1389 15.7148H33.3483C33.6174 15.7148 33.836 15.4962 33.836 15.2261L33.837 5.75043H35.0889C35.3611 5.75043 35.5829 5.52865 35.5829 5.25642V3.02178C35.5829 2.74955 35.3611 2.52777 35.0889 2.52777Z" fill="#54C1F0"/>
<path d="M27.0534 2.528H24.8188C24.5466 2.528 24.3258 2.74978 24.3258 3.02202V7.64265C24.3206 7.92854 24.0893 8.15768 23.8024 8.15768H22.8669C22.5768 8.15768 22.3424 7.92434 22.3424 7.63424L22.334 3.02202C22.334 2.74978 22.1122 2.528 21.84 2.528H19.6053C19.3321 2.528 19.1113 2.74978 19.1113 3.02202V8.08621C19.1113 10.0097 20.483 11.3814 22.4076 11.3814C22.4076 11.3814 23.8518 11.3814 23.8959 11.3898C24.1566 11.4192 24.3595 11.6379 24.3595 11.907C24.3595 12.1729 24.1608 12.3905 23.9033 12.423C23.8907 12.4251 23.8791 12.4283 23.8654 12.4304L20.5976 12.442C20.3243 12.442 20.1036 12.6637 20.1036 12.936V15.1696C20.1036 15.4428 20.3243 15.6636 20.5976 15.6636H24.2512C26.1768 15.6636 27.5474 14.2929 27.5474 12.3684V3.02202C27.5474 2.74978 27.3267 2.528 27.0534 2.528Z" fill="#233266"/>
<path d="M5.42245 6.62258V7.66527V8.00163C5.42245 8.29068 5.18806 8.52612 4.89901 8.52612L3.48107 8.52717V5.76384H4.89901C5.18806 5.76384 5.42245 5.99718 5.42245 6.28728V6.62258ZM5.61901 2.52751H0.734556C0.466526 2.52751 0.25 2.74508 0.25 3.01206V5.2015C0.25 5.2057 0.251051 5.20991 0.251051 5.21411C0.251051 5.22462 0.25 5.23514 0.25 5.24459V12.267V15.1543C0.25 15.4234 0.451811 15.6431 0.701972 15.6494H0.744016H2.97865C3.25088 15.6494 3.47267 15.4287 3.47267 15.1554L3.48107 11.7593H5.61901C7.40798 11.7593 8.65458 10.518 8.65458 8.72163V5.56938C8.65458 3.77306 7.40798 2.52751 5.61901 2.52751Z" fill="#233266"/>
<path d="M14.6948 11.8686V12.2175C14.6948 12.2459 14.6906 12.2732 14.6864 12.2995C14.6811 12.3247 14.6738 12.3489 14.6654 12.372C14.596 12.5675 14.4005 12.7094 14.1682 12.7094H13.238C12.9479 12.7094 12.7114 12.4887 12.7114 12.2175V11.796C12.7114 11.7908 12.7103 11.7855 12.7103 11.7803L12.7114 10.6587V10.6566V10.5326V10.3077L12.7124 10.3045C12.7135 10.0344 12.9479 9.81576 13.238 9.81576H14.1682C14.4593 9.81576 14.6948 10.0354 14.6948 10.3077V11.8686ZM14.3395 2.54006H11.2388C10.9644 2.54006 10.7427 2.74817 10.7427 3.00359V3.87285C10.7427 3.8781 10.7437 3.88441 10.7437 3.88967C10.7437 3.89597 10.7427 3.90228 10.7427 3.90859V5.09948C10.7427 5.36961 10.9781 5.59034 11.2682 5.59034H14.2207C14.4541 5.62713 14.6391 5.79741 14.6654 6.06334V6.35134C14.6391 6.60465 14.4562 6.78965 14.2334 6.81067H12.7713C10.8268 6.81067 9.44141 8.10247 9.44141 9.91666V12.4488V12.515C9.44141 14.3187 10.6323 15.6021 12.5632 15.6021H16.6152C17.3425 15.6021 17.9322 15.0513 17.9322 14.3733V5.89411C17.9322 3.83816 16.8727 2.54006 14.3395 2.54006Z" fill="#233266"/>
</svg>
