<svg width="45" height="44" viewBox="0 0 45 44" fill="none" xmlns="http://www.w3.org/2000/svg">
<path d="M40.0475 26.2027C42.3685 16.3734 36.2818 6.52367 26.4525 4.2027C16.6232 1.88172 6.77347 7.96842 4.45249 17.7977C2.13152 27.627 8.21821 37.4767 18.0475 39.7977C27.8768 42.1187 37.7265 36.032 40.0475 26.2027Z" fill="#5F259F"/>
<path d="M30.5517 17.2286C30.5517 16.5134 29.9387 15.9005 29.2236 15.9005H26.7716L21.1525 9.46403C20.6417 8.85104 19.8243 8.64671 19.007 8.85104L17.0659 9.46403C16.7594 9.5662 16.6572 9.97486 16.8615 10.1792L22.9915 16.0026H13.6944C13.3879 16.0026 13.1836 16.2069 13.1836 16.5134V17.5351C13.1836 18.2503 13.7966 18.8633 14.5117 18.8633H15.9421V23.7672C15.9421 27.4451 17.8832 29.5906 21.1525 29.5906C22.1742 29.5906 22.9915 29.4885 24.0131 29.0798V32.3491C24.0131 33.2686 24.7283 33.9837 25.6478 33.9837H27.0781C27.3846 33.9837 27.6911 33.6772 27.6911 33.3707V18.7611H30.0409C30.3474 18.7611 30.5517 18.5568 30.5517 18.2503V17.2286ZM24.0131 26.0148C23.4001 26.3213 22.5828 26.4235 21.9698 26.4235C20.3352 26.4235 19.5179 25.6062 19.5179 23.7672V18.8633H24.0131V26.0148Z" fill="white"/>
</svg>
