<svg width="132" height="36" viewBox="0 0 132 36" fill="none" xmlns="http://www.w3.org/2000/svg">
<path d="M101.215 34.1729H94.4121L103.873 0.00455856H110.676L101.215 34.1729Z" fill="#66686C"/>
<path d="M97.6833 1.08466C97.2116 0.434486 96.4842 0.106403 95.496 0.106403H58.0889L56.2361 6.7986H63.0426V6.79472H90.2661L88.2856 13.9462H61.0614L61.0639 13.9314H54.2602L48.6133 34.3174H55.4205L59.21 20.6345H89.8121C90.7677 20.6345 91.6673 20.3086 92.5133 19.6566C93.3575 19.004 93.9131 18.1993 94.1795 17.2384L97.9687 3.55269C98.2452 2.55962 98.1496 1.73553 97.6833 1.08466Z" fill="#66686C"/>
<path d="M44.6488 32.0398C44.2731 33.3927 43.0412 34.3286 41.6368 34.3286H6.53854C5.58216 34.3286 4.87132 34.0026 4.40389 33.3514C3.93681 32.6995 3.83662 31.893 4.10367 30.9324L12.6677 0.104229H19.4767L11.8274 27.6385H39.0639L46.7132 0.104229H53.5208L44.6488 32.0398Z" fill="#66686C"/>
<path d="M122.425 0.0685463L131.038 17.197L112.933 34.3208L122.425 0.0685463Z" fill="#27803B"/>
<path d="M116.387 0.0685463L124.994 17.197L106.881 34.3208L116.387 0.0685463Z" fill="#E9661C"/>
</svg>
