<svg width="69" height="44" viewBox="0 0 69 44" fill="none" xmlns="http://www.w3.org/2000/svg">
<path fill-rule="evenodd" clip-rule="evenodd" d="M9.81813 40.6721C9.80981 40.6884 9.7936 40.7209 9.78563 40.7454C8.90713 42.4049 7.18226 43.5355 5.21366 43.5355C2.3583 43.5355 0.015625 41.1437 0.015625 38.1908C0.015625 35.2542 2.3583 32.8461 5.21366 32.8461C7.19057 32.8461 8.92338 34.0012 9.7936 35.6853C9.81813 35.7178 9.82606 35.734 9.85063 35.7828C9.85895 35.7911 8.19114 36.9949 8.17489 36.9707C8.16657 36.9382 8.15864 36.9136 8.14239 36.8974C7.66215 35.7015 6.52368 34.9043 5.21366 34.9288C3.46461 34.9451 2.02466 36.393 2.02466 38.1908C2.02466 40.0048 3.46461 41.4694 5.21366 41.4694C6.48286 41.4694 7.58921 40.6884 8.09325 39.582C8.11782 39.5412 8.12614 39.5087 8.14239 39.4762L9.81813 40.6721Z" fill="#13101E"/>
<path fill-rule="evenodd" clip-rule="evenodd" d="M11.9736 32.944H13.9747V36.6779H19.2302V32.944H21.2476V43.3321H19.2302V38.7685H13.9747V43.3321H11.9736V32.944Z" fill="#13101E"/>
<path fill-rule="evenodd" clip-rule="evenodd" d="M49.4922 43.3321V32.944H56.7566V35.0425H51.5177V37.1169H56.358V39.1913H51.5177V41.2657H57.4967V43.3321H49.4922Z" fill="#13101E"/>
<path fill-rule="evenodd" clip-rule="evenodd" d="M60.3359 43.3321V32.944H62.3696V41.2657H68.0155V43.3321H60.3359Z" fill="#13101E"/>
<path fill-rule="evenodd" clip-rule="evenodd" d="M38.5751 43.3321H38.5101H36.5415V32.944H36.6878H39.3641L43.814 39.1913V32.944H45.8314V43.3321H44.2206L38.5751 35.4982V43.3321Z" fill="#13101E"/>
<path fill-rule="evenodd" clip-rule="evenodd" d="M28.8861 35.0425L27.1129 39.1913H30.7409L28.8861 35.0425ZM26.2015 41.2657L25.2742 43.3321H22.8662L27.4707 32.944H30.2853L34.9222 43.3321H32.5142L31.579 41.2657H26.2015Z" fill="#13101E"/>
<path fill-rule="evenodd" clip-rule="evenodd" d="M35.0607 28.943C32.8788 30.2047 30.2686 30.9545 27.4875 30.9545C21.7973 30.9545 16.8134 27.8523 14.1178 23.2525C14.1178 23.2311 14.0969 23.2311 14.0969 23.2098C14.0969 23.1884 14.0751 23.1884 14.0751 23.167L16.2571 22.0336L18.439 20.9205C18.4608 20.9429 18.4827 20.9633 18.5036 21.007C20.3646 24.0227 23.702 26.0342 27.4875 26.0342C28.7077 26.0342 29.8841 25.8205 30.9324 25.4776C28.6004 22.8038 27.1885 19.2957 27.1885 15.4661C27.1885 11.6588 28.5795 8.15069 30.8896 5.45448C29.8414 5.09125 28.6859 4.89896 27.4875 4.89896C23.7447 4.89896 20.2791 6.90941 18.3754 10.1398C18.3535 10.1611 18.3535 10.1835 18.3535 10.2039L13.9688 7.93703C13.9896 7.89429 14.0115 7.85156 14.0323 7.82918C16.7071 3.1449 21.7546 0 27.4875 0C30.2686 0 32.8788 0.748834 35.0607 2.03284C37.2426 0.748834 39.8529 0 42.6329 0C48.3659 0 53.4145 3.1449 56.0883 7.82918C56.1097 7.85156 56.131 7.89429 56.1524 7.93703L51.7672 10.2039C51.7672 10.1835 51.7672 10.1611 51.7459 10.1398C49.8423 6.90941 46.3769 4.89896 42.6329 4.89896C41.4356 4.89896 40.2801 5.09125 39.2318 5.45448C41.5419 8.15069 42.9329 11.6588 42.9329 15.4661C42.9329 19.2957 41.521 22.8038 39.1891 25.4776C40.2373 25.8205 41.4137 26.0342 42.6329 26.0342C46.4196 26.0342 49.7568 24.0227 51.6177 21.007C51.639 20.9633 51.6604 20.9429 51.6818 20.9205L53.8632 22.0336L56.0456 23.167C56.0456 23.1884 56.0242 23.1884 56.0242 23.2098C56.0242 23.2311 56.0028 23.2311 56.0028 23.2525C53.3076 27.8523 48.3232 30.9545 42.6329 30.9545C39.8529 30.9545 37.2426 30.2047 35.0607 28.943ZM35.0607 22.8038C33.2633 20.9002 32.1087 18.3118 32.1087 15.4661C32.1087 12.664 33.1997 10.1184 35.0607 8.21479C36.9217 10.1184 38.0127 12.664 38.0127 15.4661C38.0127 18.3118 36.8571 20.9002 35.0607 22.8038Z" fill="#13101E"/>
</svg>
