<svg width="68" height="28" viewBox="0 0 68 28" fill="none" xmlns="http://www.w3.org/2000/svg">
<path fill-rule="evenodd" clip-rule="evenodd" d="M0 0.945888H7.22981C8.96093 0.945888 10.6602 1.07397 12.3434 1.34643C14.0104 1.60318 15.5813 2.34044 17.0562 3.52651C18.4348 4.69687 19.5088 6.18782 20.2783 7.99905C21.0638 9.81028 21.4966 11.6699 21.5608 13.5935C21.5929 13.7218 21.6089 13.8661 21.6089 14.0102C21.6089 14.1386 21.6089 14.2828 21.6089 14.4272C21.6089 14.4753 21.6089 14.5234 21.6089 14.5716C21.6089 14.6035 21.6089 14.6515 21.6089 14.7158C21.5608 16.7194 21.1439 18.643 20.3584 20.5185C19.589 22.3784 18.4509 23.9012 16.944 25.103C15.6137 26.0813 14.2029 26.7059 12.6801 26.9949C11.1733 27.2995 9.61837 27.4598 8.04746 27.5238C7.791 27.5238 7.5184 27.5238 7.24595 27.5238C6.97334 27.5238 6.70089 27.5238 6.41244 27.5238H0V0.945888ZM5.29005 22.7305C5.46641 22.7305 5.6589 22.7305 5.86724 22.7468C6.07558 22.7624 6.3002 22.7624 6.52453 22.7624C6.60479 22.7624 6.66876 22.7624 6.74901 22.7624C6.81298 22.7624 6.8771 22.7624 6.95735 22.7624C7.11757 22.7951 7.26194 22.8106 7.4223 22.8106C7.58252 22.8106 7.72689 22.8106 7.85497 22.8106C8.11143 22.8106 8.3679 22.7951 8.62451 22.7787C8.88097 22.7787 9.13743 22.7467 9.41003 22.7304C10.1794 22.6666 10.9488 22.5223 11.7023 22.3137C12.4398 22.0894 13.0969 21.753 13.642 21.3043C14.4915 20.583 15.1328 19.6049 15.5656 18.3867C15.9984 17.1685 16.2227 15.9019 16.2389 14.5874C16.2389 14.5553 16.2389 14.5234 16.2389 14.4913C16.2389 14.4432 16.2389 14.3951 16.2389 14.3309C16.2389 14.2828 16.2389 14.2347 16.2389 14.1867C16.2389 14.1546 16.2389 14.1065 16.2389 14.0424C16.2227 12.7439 15.9984 11.4774 15.5816 10.2752C15.1649 9.05689 14.5396 8.06302 13.7219 7.29363C13.1289 6.73273 12.4396 6.34774 11.6542 6.1394C10.8848 5.93107 10.0832 5.81883 9.24952 5.7867C9.07331 5.75471 8.88082 5.73857 8.70447 5.73857C8.52826 5.73857 8.33577 5.73857 8.15941 5.73857H5.29005V22.7305ZM36.5007 27.0907L34.8818 25.1832C34.1924 25.825 33.391 26.3539 32.4933 26.7543C31.5957 27.1709 30.6659 27.4116 29.736 27.4918C29.6398 27.5074 29.5437 27.5238 29.4474 27.5238C29.3512 27.5238 29.2551 27.5238 29.159 27.5238C28.9505 27.5238 28.7581 27.5075 28.5498 27.4918C28.3415 27.4755 28.1491 27.4436 27.9408 27.428C27.5398 27.3477 27.1393 27.2356 26.7386 27.0908C26.3377 26.9468 25.969 26.7707 25.6002 26.5464C24.9429 26.097 24.4301 25.5042 24.0293 24.783C23.6286 24.0454 23.3881 23.2922 23.3079 22.5226C23.2919 22.4261 23.2919 22.3303 23.2919 22.25C23.2919 22.1698 23.2919 22.0895 23.2919 22.0094C23.2919 21.9456 23.2919 21.8816 23.2919 21.8014C23.3079 21.7211 23.3079 21.6409 23.3079 21.5608C23.3079 21.5288 23.324 21.5125 23.324 21.4969C23.3399 21.4642 23.3399 21.4487 23.3399 21.4004C23.3399 21.3684 23.3558 21.3201 23.3558 21.2563C23.372 21.208 23.372 21.1598 23.372 21.1278C23.5803 19.9898 24.0611 19.0443 24.8307 18.2903C25.6 17.537 26.4498 16.8797 27.3634 16.2868C26.7864 15.6778 26.3215 15.0205 25.9369 14.315C25.5522 13.6258 25.3597 12.8884 25.3597 12.151C25.3597 12.0068 25.3597 11.8624 25.3917 11.7021C25.4077 11.558 25.4238 11.3975 25.44 11.2694C25.472 11.1571 25.488 11.061 25.5199 10.9647C25.5521 10.8526 25.584 10.7565 25.6 10.6601C25.9208 9.65021 26.5459 8.92895 27.4597 8.464C28.3736 7.9992 29.3352 7.75873 30.3772 7.75873C31.6756 7.75873 32.8618 8.11129 33.936 8.81671C35.0099 9.50584 35.5551 10.5478 35.5551 11.8943V12.231C35.4749 13.0808 35.1544 13.8179 34.6092 14.4272C34.0642 15.0362 33.4712 15.5813 32.846 16.0782C32.7016 16.1585 32.5574 16.2387 32.429 16.3508C32.3009 16.4469 32.1726 16.5432 32.0443 16.6233L35.2984 20.4227C35.4749 20.2622 35.6352 20.1018 35.7953 19.9413C35.9558 19.7808 36.1 19.6211 36.2444 19.4444C36.5808 19.1242 36.9014 18.7871 37.2223 18.4505C37.5429 18.0976 37.8475 17.7612 38.136 17.4084L40.3001 19.7013C40.0595 19.9576 39.8032 20.2137 39.5626 20.4701C39.3223 20.7271 39.0816 20.9833 38.8413 21.2559C38.5687 21.5122 38.3124 21.7684 38.0718 22.0254C37.8315 22.2817 37.5908 22.5379 37.3505 22.7949L40.9093 27.0906L36.5007 27.0907ZM27.2673 23.0997C27.4757 23.3723 27.6843 23.5966 27.8767 23.7727C28.0849 23.965 28.2933 24.0935 28.5177 24.2058C28.7262 24.3179 28.9185 24.4138 29.1268 24.4621C29.3352 24.5104 29.5275 24.5424 29.7359 24.5424C30.1688 24.5424 30.5694 24.4465 30.9381 24.286C31.3069 24.1092 31.6595 23.9013 31.9641 23.677C32.2365 23.4847 32.5571 23.2121 32.8938 22.8592L29.2549 18.5153C29.1747 18.5629 29.0947 18.6274 28.9985 18.6751C28.9185 18.7234 28.8542 18.7872 28.7901 18.8356C28.4054 19.172 28.0367 19.5413 27.7 19.958C27.3475 20.3747 27.107 20.8078 26.9626 21.2565C26.9305 21.3686 26.8985 21.4808 26.8824 21.5929C26.8504 21.705 26.8504 21.8335 26.8504 21.9457C26.8504 22.1538 26.8824 22.3461 26.9625 22.5385C27.0426 22.7308 27.1552 22.9229 27.2673 23.0997ZM30.1848 14.7639C30.2168 14.7478 30.2329 14.7318 30.2491 14.7158C30.2811 14.6996 30.2969 14.6996 30.345 14.6677C30.3612 14.6515 30.3932 14.6355 30.4093 14.6035C30.4253 14.5876 30.4413 14.5876 30.4734 14.5876C30.8741 14.2991 31.2428 13.9945 31.5955 13.6899C31.9319 13.3692 32.1566 12.9525 32.2687 12.4556V12.087C32.2687 11.558 32.0765 11.1252 31.7076 10.8046C31.355 10.4839 30.9541 10.2915 30.5214 10.2274C30.4893 10.2274 30.4411 10.2274 30.4093 10.2274C30.3612 10.2274 30.329 10.2274 30.2811 10.2274C30.2651 10.2274 30.2329 10.2274 30.201 10.2274C30.1848 10.2274 30.1367 10.2274 30.1046 10.2274C29.7841 10.2595 29.4636 10.4039 29.1748 10.6441C28.8864 10.8686 28.71 11.2213 28.678 11.6861C28.678 11.7021 28.662 11.7343 28.662 11.7663C28.6459 11.7984 28.6459 11.8303 28.6459 11.8784C28.6459 11.8944 28.6299 11.9105 28.6299 11.9424C28.6139 11.9745 28.6139 12.0066 28.6139 12.0548C28.6139 12.4555 28.726 12.8403 28.9503 13.1767C29.1747 13.5294 29.4153 13.8661 29.6718 14.1867C29.7838 14.2828 29.8641 14.3791 29.9444 14.4752C30.0246 14.5716 30.1046 14.6677 30.1848 14.7639ZM68 13.0486V13.9303C68 16.3347 67.5992 18.579 66.7976 20.6788C65.9961 22.7787 64.4575 24.4782 62.1329 25.7765C61.3956 26.2572 60.5943 26.6099 59.6965 26.8825C58.8149 27.1388 57.9331 27.3312 57.0515 27.4433C56.7306 27.4595 56.426 27.4915 56.1379 27.5071C55.8328 27.5071 55.5447 27.5234 55.2562 27.5234C55.0799 27.5234 54.9195 27.5234 54.7435 27.5234C54.567 27.5234 54.4066 27.5071 54.2301 27.4751C52.0824 27.3473 50.0303 26.7538 48.0267 25.7117C46.039 24.6859 44.4197 23.2916 43.2016 21.5439C42.5926 20.6146 42.1116 19.6044 41.7428 18.5467C41.3744 17.4883 41.1338 16.4145 41.0057 15.3245C40.9897 15.1159 40.9574 14.8757 40.9414 14.6512C40.9414 14.4109 40.9254 14.1704 40.9254 13.93C40.9254 11.381 41.5827 8.96049 42.9132 6.65233C44.2439 4.34387 46.1195 2.59661 48.5398 1.4104C49.0527 1.15365 49.5819 0.945597 50.1268 0.78509C50.6718 0.608881 51.2169 0.464512 51.794 0.320288C52.3389 0.208194 52.8683 0.127941 53.413 0.0798175C53.9578 0.016138 54.4867 0 54.9995 0C55.0478 0 55.1116 0 55.192 0C55.2561 0 55.3201 0 55.3842 0C57.4682 0.0481231 59.4879 0.545056 61.4599 1.45881C63.4154 2.38842 65.1145 3.67088 66.5413 5.3059L62.6941 8.11114C61.636 7.06916 60.5299 6.26778 59.3437 5.69059C58.1574 5.12955 56.891 4.84095 55.5605 4.84095C55.1279 4.84095 54.6789 4.87308 54.2298 4.92121C53.7653 4.98518 53.3002 5.06528 52.8194 5.17767C50.8475 5.7867 49.3727 6.92522 48.363 8.59208C47.3691 10.2752 46.8722 12.0386 46.8722 13.9301C46.8722 14.0582 46.8722 14.2026 46.8881 14.3629C46.9045 14.507 46.9363 14.6514 46.9523 14.7957C46.9523 14.876 46.9683 14.9563 46.9843 15.0202C47.0003 15.0842 47.0001 15.1645 47.0001 15.2446C47.0326 15.3088 47.0484 15.3729 47.0644 15.4532C47.0804 15.5332 47.0804 15.6134 47.0804 15.6614C47.4331 17.7294 48.3147 19.3642 49.7573 20.5349C51.2002 21.7048 52.7553 22.4261 54.438 22.6667C54.6626 22.7305 54.9191 22.7625 55.1755 22.7788C55.432 22.7951 55.6725 22.7951 55.8968 22.7951C57.5001 22.7951 58.9105 22.362 60.177 21.5123C61.4273 20.647 62.0522 19.4288 62.0522 17.8259L62.1325 17.6491H55.5922V13.0486H68Z" fill="#13101E"/>
</svg>
