<svg width="73" height="12" viewBox="0 0 73 12" fill="none" xmlns="http://www.w3.org/2000/svg">
<path d="M1.32394 11.3238H0.299367C0.213879 11.3238 0 11.3238 0 11.1957C0 11.1108 0.042904 11.0676 0.170976 11.0247C1.11134 10.7254 1.32362 10.2131 1.32362 9.48786V1.83783C1.32362 1.15392 1.10974 0.641318 0.170976 0.300968C0.042904 0.300968 0 0.21548 0 0.172897C0 0.00224126 0.213879 0.044825 0.299367 0.044825H8.75881C10.6815 0.044825 12.2629 1.58168 12.2629 3.50564C12.2629 5.42959 10.6815 6.96453 8.75881 6.96453H4.48603V9.57111C4.52893 10.2547 4.74217 10.7238 5.63867 11.0238C5.76674 11.0667 5.80933 11.1096 5.80933 11.1947C5.80933 11.3228 5.59577 11.3228 5.51028 11.3228H1.32394V11.3238ZM64.3928 7.17905H66.4009L64.3928 3.7605L64.1786 3.41855L62.3856 7.17905H64.3928ZM64.3928 0.000960537H65.7603L71.4854 10.0866C71.6567 10.3427 71.8696 10.5989 72.1257 10.727C72.3393 10.8982 72.5954 10.9415 72.809 11.0263C72.8948 11.0695 72.98 11.1124 72.98 11.1976C72.98 11.3257 72.7664 11.3257 72.6806 11.3257H67.5962C67.511 11.3257 67.2539 11.3257 67.2539 11.1976C67.2539 11.1124 67.3397 11.0695 67.4258 11.0263C67.682 10.9415 67.8523 10.8131 67.9381 10.5569C68.0239 10.2573 67.9381 10.0872 67.7246 9.70174C67.4345 9.08508 67.1356 8.47268 66.8281 7.86455H62.0423L62.0001 7.94972C61.9569 8.12102 61.6159 8.71815 61.3597 9.36011C61.0184 10.0437 60.89 10.2143 60.9755 10.5563C61.0187 10.8124 61.2317 10.9405 61.4878 11.026C61.5739 11.0692 61.6159 11.1121 61.6159 11.197C61.6159 11.325 61.4017 11.325 61.3165 11.325H58.9661C58.8809 11.325 58.6667 11.325 58.6667 11.197C58.6667 11.1121 58.7099 11.0689 58.8377 11.026C59.0519 10.9408 59.3074 10.8979 59.5213 10.7266C59.7774 10.5986 59.9916 10.3424 60.1616 10.0863L60.461 9.44592L63.7086 2.6498L63.2379 1.83783C62.8114 1.15392 62.3837 0.726806 61.9136 0.470343C61.7001 0.342271 61.4862 0.342271 61.2733 0.256783C61.1452 0.21388 61.102 0.170976 61.1452 0.0854878C61.1452 0 61.2304 0.042904 61.2733 0H64.3931L64.3928 0.000960537ZM51.6176 11.2805H51.7886C59.6512 11.2805 59.5661 0.0422636 51.7886 0.0422636H45.3367C45.2086 0.0422636 44.9954 -0.000640357 44.9954 0.170335C44.9954 0.212919 45.0806 0.298407 45.1657 0.298407C46.1058 0.597454 46.3184 1.11038 46.3619 1.7517V9.57335C46.3196 10.2566 46.1058 10.726 45.1657 11.0257C45.0806 11.0689 44.9954 11.1118 44.9954 11.197C44.9954 11.325 45.2089 11.325 45.3367 11.325H49.4814V11.2818H51.6176V11.2805ZM51.6176 0.854878C52.195 0.857152 52.748 1.08744 53.1563 1.49559C53.5647 1.90374 53.7952 2.45669 53.7977 3.03402V8.24717C53.7953 8.82452 53.5648 9.37752 53.1564 9.78569C52.7481 10.1939 52.195 10.4241 51.6176 10.4263H49.4798V0.854878H51.6176ZM35.3369 7.17905H37.345L35.3369 3.7605L35.123 3.41855L33.33 7.17905H35.3369ZM35.3369 0.000960537H36.7457L42.4714 10.0866C42.5995 10.3427 42.8134 10.5989 43.0698 10.727C43.2831 10.8982 43.5402 10.9415 43.7963 11.0263C43.8815 11.0695 43.9666 11.1124 43.9666 11.1976C43.9666 11.3257 43.7105 11.3257 43.6253 11.3257H38.5425C38.4567 11.3257 38.2431 11.3257 38.2431 11.1976C38.2431 11.1124 38.2854 11.0695 38.4135 11.0263C38.6277 10.9415 38.8406 10.8131 38.8838 10.5569C38.969 10.2573 38.8838 10.0872 38.7128 9.70174C38.4135 9.06138 38.0725 8.46265 37.7734 7.86455H32.9864L32.9438 7.94972C32.9013 8.12102 32.6019 8.71815 32.3035 9.36011C32.0044 10.0437 31.8338 10.2143 31.9193 10.5563C32.0048 10.8124 32.1754 10.9405 32.4316 11.026C32.5167 11.0692 32.6022 11.1121 32.6022 11.197C32.6022 11.325 32.3887 11.325 32.2609 11.325H29.9527C29.8672 11.325 29.6108 11.325 29.6108 11.197C29.6108 11.1121 29.6963 11.0689 29.7818 11.026C30.0379 10.9408 30.2518 10.8979 30.5086 10.7266C30.7218 10.5986 30.9786 10.3424 31.1063 10.0863L31.4054 9.44592L34.6959 2.6498L34.2265 1.83783C33.7994 1.15392 33.33 0.726806 32.9019 0.470343C32.6458 0.342271 32.4745 0.342271 32.218 0.256783C32.1322 0.21388 32.0467 0.170976 32.0899 0.0854878C32.1332 0 32.218 0.042904 32.2612 0H35.3375L35.3369 0.000960537ZM21.2359 7.47842C22.2188 7.81973 23.4153 7.9049 24.355 7.60649L28.073 10.8115L28.372 11.0676C28.3883 11.0844 28.4007 11.1046 28.4082 11.1267C28.4157 11.1489 28.4181 11.1725 28.4152 11.1957C28.4152 11.3238 28.2014 11.3238 28.1155 11.3238H24.1847L21.2365 8.88817L18.8432 6.96485V9.61465C18.8864 10.255 19.1425 10.7254 20.0397 11.0234C20.1252 11.0667 20.1677 11.1092 20.1677 11.1944C20.1677 11.3225 19.9539 11.3225 19.8681 11.3225H14.6981C14.5701 11.3225 14.3562 11.3225 14.3562 11.1944C14.3562 11.1092 14.442 11.0663 14.5268 11.0234C15.5514 10.6821 15.6795 10.1692 15.7233 9.35851V1.9659C15.6804 1.19747 15.5524 0.641318 14.5268 0.300968C14.4413 0.300968 14.3562 0.21548 14.3562 0.172897C14.3562 0.00224126 14.5701 0.044825 14.6981 0.044825H23.0305C23.4831 0.0428868 23.9317 0.130123 24.3505 0.301553C24.7694 0.472983 25.1505 0.725248 25.4719 1.04394C25.7933 1.36264 26.0488 1.74152 26.2237 2.15896C26.3987 2.57639 26.4897 3.02421 26.4916 3.47682V3.50564C26.4948 4.41927 26.1352 5.29681 25.4917 5.9454C24.8482 6.59398 23.9736 6.96055 23.0599 6.96453H20.3384C20.4665 7.22067 20.7655 7.30648 21.0217 7.43487C21.1075 7.43487 21.1497 7.47842 21.2355 7.47842H21.2359ZM21.2359 6.15384H21.5794C22.6901 6.15384 23.6305 4.95701 23.6305 3.41855C23.6286 1.92299 22.6885 0.726806 21.5794 0.726806H18.8428V6.15384H21.2359ZM6.92131 0.727126H4.48603V6.15416H7.30648C8.45913 6.15416 9.35563 4.95733 9.35563 3.41887C9.35563 1.92363 8.45913 0.727126 7.30648 0.727126H6.92131Z" fill="black"/>
</svg>
